<svg width="45" height="39" viewBox="0 0 45 39" fill="none" xmlns="http://www.w3.org/2000/svg">
<path d="M7.784 31.384C6.26933 31.384 4.872 31.1067 3.592 30.552C2.33333 29.976 1.29867 29.1653 0.488 28.12L3.368 24.664C3.98667 25.4747 4.63733 26.0933 5.32 26.52C6.00267 26.9253 6.73867 27.128 7.528 27.128C9.64 27.128 10.696 25.8907 10.696 23.416V12.76H2.824V8.6H15.848V23.128C15.848 25.9013 15.1653 27.9707 13.8 29.336C12.4347 30.7013 10.4293 31.384 7.784 31.384Z" fill="#F2055C"/>
<path d="M42.344 31V8.6H32.168C29.736 8.6 27.592 9.06933 25.736 10.008C23.88 10.9253 22.4293 12.216 21.384 13.88C20.3387 15.544 19.816 17.5173 19.816 19.8C19.816 22.0613 20.3387 24.0347 21.384 25.72C22.4293 27.384 23.88 28.6853 25.736 29.624C27.592 30.5413 29.736 31 32.168 31H42.344ZM37.16 26.744H32.424C30.9307 26.744 29.64 26.4667 28.552 25.912C27.4427 25.336 26.5893 24.5253 25.992 23.48C25.3733 22.4347 25.064 21.208 25.064 19.8C25.064 18.3707 25.3733 17.144 25.992 16.12C26.5893 15.0747 27.4427 14.2747 28.552 13.72C29.64 13.144 30.9307 12.856 32.424 12.856H37.16V26.744Z" fill="#F2055C"/>
</svg>
